<svg width="112" height="22" viewBox="0 0 112 22" fill="none" xmlns="http://www.w3.org/2000/svg">
<path d="M12.2856 14.756L6.12559 1.708H3.10159L0.721594 21H4.30559L5.81759 8.148L10.8856 18.816H13.7416L18.7816 8.148L20.2656 21H23.8496L21.4976 1.708H18.4176L12.2856 14.756ZM39.532 14.42C39.532 10.304 36.62 7.644 32.896 7.644C29.172 7.644 26.12 10.304 26.12 14.42C26.12 18.536 29.172 21.28 32.896 21.28C35.304 21.28 37.824 20.356 39 18.116C38.16 17.668 37.208 17.164 36.396 16.716C35.78 17.836 34.436 18.396 33.12 18.396C31.188 18.396 29.732 17.332 29.508 15.596H39.476C39.504 15.288 39.532 14.756 39.532 14.42ZM29.48 13.272C29.732 11.508 31.132 10.5 32.924 10.5C34.604 10.5 35.948 11.48 36.2 13.272H29.48ZM52.1246 21H55.5126V0.812H52.1246V9.66C51.3966 8.344 49.7446 7.644 48.0086 7.644C44.5646 7.644 41.5966 10.304 41.5966 14.476C41.5966 18.62 44.5926 21.28 48.0086 21.28C49.7166 21.28 51.3966 20.552 52.1246 19.236V21ZM52.0686 14.42C52.0686 16.604 50.4446 18.004 48.5686 18.004C46.6646 18.004 45.1246 16.576 45.1246 14.42C45.1246 12.292 46.6646 10.892 48.5686 10.892C50.3326 10.892 52.0686 12.18 52.0686 14.42ZM63.869 2.94H60.481V7.924H58.101V10.668H60.481V21H63.869V10.668H66.641V7.924H63.869V2.94ZM81.6414 14.42C81.6414 10.304 78.7294 7.644 75.0054 7.644C71.2814 7.644 68.2294 10.304 68.2294 14.42C68.2294 18.536 71.2814 21.28 75.0054 21.28C77.4134 21.28 79.9334 20.356 81.1094 18.116C80.2694 17.668 79.3174 17.164 78.5054 16.716C77.8894 17.836 76.5454 18.396 75.2294 18.396C73.2974 18.396 71.8414 17.332 71.6174 15.596H81.5854C81.6134 15.288 81.6414 14.756 81.6414 14.42ZM71.5894 13.272C71.8414 11.508 73.2414 10.5 75.0334 10.5C76.7134 10.5 78.0574 11.48 78.3094 13.272H71.5894ZM83.6779 14.42C83.6779 18.536 86.9819 21.28 90.7339 21.28C92.9459 21.28 94.9619 20.328 96.1939 18.704L93.4499 16.688C92.8339 17.528 91.7979 18.004 90.7339 18.004C88.8299 18.004 87.0659 16.548 87.0659 14.42C87.0659 12.292 88.8299 10.948 90.7339 10.948C91.7979 10.948 92.8339 11.396 93.4499 12.236L96.1659 10.192C94.9339 8.568 92.9179 7.644 90.7339 7.644C86.9819 7.644 83.6779 10.304 83.6779 14.42ZM102.481 14.028C102.481 11.76 104.189 10.976 105.617 10.976C107.017 10.976 108.389 12.012 108.389 13.888V21C108.949 21 111.245 21 111.805 21V13.72C111.805 9.884 109.929 7.644 106.541 7.644C105.253 7.644 103.097 8.344 102.481 9.94V0.812H99.0648V21H102.481V14.028Z" fill="white"/>
</svg>
